<svg width="29" height="29" viewBox="0 0 29 29" fill="none" xmlns="http://www.w3.org/2000/svg">
<path d="M21.7584 15.5147L20.4587 14.0772C20.1817 13.7543 19.8611 13.1037 19.7825 12.7013L19.2976 10.2182C18.8472 7.91173 17.1037 6.18385 14.9685 5.63286C14.2819 4.82958 13.2304 4.45414 12.1508 4.66496C11.081 4.87387 10.2323 5.64076 9.90014 6.65318C8.17219 7.97893 7.23245 10.2104 7.6771 12.4874L8.162 14.9705C8.24058 15.3729 8.18826 16.0963 8.05115 16.4899L7.37994 18.3225C7.11577 19.0568 7.16926 19.8003 7.54496 20.4198C7.90892 21.0314 8.56801 21.4325 9.34221 21.536C11.3727 21.812 13.4363 21.735 15.4384 21.3441C17.4406 20.9531 19.3815 20.248 21.1609 19.2383C21.8039 18.8784 22.2323 18.2547 22.3552 17.5277C22.4782 16.8006 22.2638 16.0681 21.7584 15.5147Z" fill="#438BFB"/>
<path d="M18.3899 21.7968C18.2001 23.0158 17.2697 24.0431 15.9938 24.2923C15.2185 24.4437 14.3916 24.2791 13.7425 23.8251C13.371 23.592 13.0588 23.2454 12.8428 22.8698C12.9742 22.8645 13.1037 22.8494 13.2449 22.8422C13.4764 22.8276 13.7177 22.811 13.9571 22.7847C14.5261 22.7245 15.1011 22.6428 15.6704 22.5316C16.2298 22.4224 16.7835 22.2837 17.3235 22.1273C17.5258 22.0674 17.73 22.0173 17.9205 21.9496C18.0737 21.8993 18.2269 21.849 18.3899 21.7968Z" fill="#438BFB"/>
</svg>
